<svg xmlns="http://www.w3.org/2000/svg" viewBox="0 0 120 120">
  <rect width="120" height="120" fill="#111827" rx="18" />
  <path d="M60 24c-19.9 0-36 15.9-36 35.6 0 15.7 10.3 29 24.6 33.7 1.8.3 2.4-.8 2.4-1.7 0-.8 0-3.1-.1-6.1-10 2.1-12.1-4.7-12.1-4.7-1.7-4.3-4-5.4-4-5.4-3.3-2.2.2-2.1.2-2.1 3.7.2 5.7 3.7 5.7 3.7 3.3 5.6 8.6 4 10.7 3 .3-2.4 1.3-4 2.3-5-8-1-16.4-4-16.4-17.7 0-3.9 1.4-7 3.7-9.5-.4-1-1.6-5.1.3-10.6 0 0 3-.9 9.8 3.6a34.2 34.2 0 0 1 17.9 0c6.8-4.5 9.7-3.6 9.7-3.6 1.9 5.5.7 9.6.3 10.6 2.3 2.5 3.7 5.6 3.7 9.5 0 13.8-8.4 16.6-16.4 17.6 1.3 1.1 2.5 3.3 2.5 6.7 0 4.8-.1 8.7-.1 9.9 0 .9.6 2 2.4 1.6C85.8 88.6 96 75.3 96 59.6 96 39.9 79.9 24 60 24z" fill="#22d3ee"/>
</svg>
